<svg width="13" height="13" viewBox="0 0 13 13" fill="none" xmlns="http://www.w3.org/2000/svg">
<path d="M8.40318 6.99424L12.6976 2.70953C13.0892 2.3179 13.0892 1.68292 12.6976 1.29129C12.306 0.899649 11.671 0.899649 11.2794 1.29129L6.99502 5.58598L2.71063 1.29129C2.31902 0.899649 1.68409 0.899649 1.29248 1.29129C0.900872 1.68292 0.900872 2.3179 1.29248 2.70953L5.58687 6.99424L1.29248 11.2789C1.10342 11.4665 0.99707 11.7218 0.99707 11.9881C0.99707 12.2544 1.10342 12.5096 1.29248 12.6972C1.48 12.8863 1.73527 12.9926 2.00156 12.9926C2.26784 12.9926 2.52311 12.8863 2.71063 12.6972L6.99502 8.40249L11.2794 12.6972C11.4669 12.8863 11.7222 12.9926 11.9885 12.9926C12.2548 12.9926 12.51 12.8863 12.6976 12.6972C12.8866 12.5096 12.993 12.2544 12.993 11.9881C12.993 11.7218 12.8866 11.4665 12.6976 11.2789L8.40318 6.99424Z" fill="white"/>
</svg>
